<svg width="34" height="34" fill="none" xmlns="http://www.w3.org/2000/svg"><circle cx="17" cy="17" r="17" fill="#E89A04"/><path d="M22.715 10.201h-11.43a1.722 1.722 0 00-1.076 3.067L15 17.102c.713.57 1.07.856 1.466.965.349.097.717.097 1.066 0 .396-.109.753-.394 1.466-.965l4.792-3.834a1.722 1.722 0 00-1.076-3.067z" fill="#fff"/><path d="M12.762 23.8h8.476c1.12 0 1.68 0 2.108-.218a2 2 0 00.873-.874c.218-.427.218-.987.218-2.108v-6.575l-4.439 3.552c-1.07.856-1.605 1.284-2.198 1.448a3 3 0 01-1.6 0c-.593-.164-1.128-.592-2.198-1.448l-4.44-3.552V20.6c0 1.12 0 1.68.218 2.108a2 2 0 00.875.874c.427.218.987.218 2.107.218z" fill="#fff"/></svg>