<svg width="34" height="34" fill="none" xmlns="http://www.w3.org/2000/svg"><path fill-rule="evenodd" clip-rule="evenodd" d="M17 34c9.389 0 17-7.611 17-17S26.389 0 17 0 0 7.611 0 17s7.611 17 17 17zm5.494-14.685l2.625 2.631c.521.524.506 1.392-.035 1.936l-.75.735-.016-.014a4.262 4.262 0 01-1.071.608 4.43 4.43 0 01-1.094.276c-.172.018-4.142.391-9.069-4.546-3.564-3.573-4.877-6.205-4.53-9.086a4.356 4.356 0 01.88-2.171l-.02-.02.74-.746c.542-.543 1.409-.559 1.93-.036l2.626 2.632c.521.523.506 1.391-.036 1.934l-.436.438-.888.889.122.217.02.038.003.005c.464.837 1.1 1.983 2.303 3.19 1.203 1.206 2.347 1.842 3.182 2.306.09.051.177.1.26.145l1.324-1.325c.54-.543 1.407-.558 1.93-.036z" fill="#E89A04"/></svg>