<svg width="20" height="20" fill="none" xmlns="http://www.w3.org/2000/svg"><circle cx="10" cy="10" r="10" fill="#fff"/><path d="M13.362 6H6.638a1.013 1.013 0 00-.633 1.804l1.996 1.597c.713.57 1.07.856 1.466.965.349.097.717.097 1.066 0 .396-.11.753-.394 1.466-.965l1.996-1.597A1.013 1.013 0 0013.362 6z" fill="#414042"/><path d="M8.825 14h2.35c1.12 0 1.68 0 2.108-.218a2 2 0 00.874-.874c.218-.428.218-.988.218-2.108V8.25l-1.377 1.101c-1.07.856-1.605 1.284-2.198 1.448a3 3 0 01-1.6 0c-.593-.164-1.128-.592-2.199-1.448L5.625 8.25v2.55c0 1.12 0 1.68.218 2.108a2 2 0 00.874.874c.428.218.988.218 2.108.218z" fill="#414042"/></svg>