<svg width="47" height="47" fill="none" xmlns="http://www.w3.org/2000/svg"><path fill-rule="evenodd" clip-rule="evenodd" d="M12.403 21.303c0-4.124 0-6.187 1.05-7.633a5.51 5.51 0 011.218-1.216c1.445-1.05 3.508-1.05 7.633-1.05h4.235c4.124 0 6.187 0 7.632 1.05.467.339.878.75 1.217 1.216 1.05 1.446 1.05 3.509 1.05 7.633v4.235c0 4.125 0 6.188-1.05 7.633a5.51 5.51 0 01-1.217 1.217c-1.445 1.05-3.508 1.05-7.632 1.05h-4.236c-4.124 0-6.187 0-7.632-1.05a5.5 5.5 0 01-1.217-1.217c-1.05-1.445-1.05-3.508-1.05-7.633v-4.235zm12.018-4.244a6.363 6.363 0 100 12.725 6.363 6.363 0 000-12.725zm0 10.338a3.982 3.982 0 01-3.976-3.976 3.98 3.98 0 013.976-3.976 3.98 3.98 0 013.976 3.976 3.982 3.982 0 01-3.976 3.976zm7.687-10.816a.848.848 0 11-1.695 0 .848.848 0 011.695 0z" fill="#fff"/><circle cx="23.566" cy="23.434" r="22.434" stroke="#fff" stroke-width="2"/></svg>