<svg width="47" height="47" fill="none" xmlns="http://www.w3.org/2000/svg"><path d="M29.014 10.82l-3.338-.005c-3.75 0-6.173 2.554-6.173 6.507v3h-3.355a.532.532 0 00-.525.54v4.346c0 .298.235.539.525.539h3.355v10.968c0 .298.235.539.525.539h4.379c.29 0 .524-.241.524-.54V25.748h3.924c.29 0 .525-.241.525-.539l.002-4.347a.547.547 0 00-.154-.38.518.518 0 00-.372-.159h-3.925V17.78c0-1.223.284-1.843 1.834-1.843h2.248c.29 0 .525-.242.525-.54V11.36a.532.532 0 00-.524-.54z" fill="#fff"/><circle cx="23.434" cy="23.434" r="22.434" stroke="#fff" stroke-width="2"/></svg>