<svg viewBox="0 0 141 140" fill="none" xmlns="http://www.w3.org/2000/svg"><rect x="1.5" y="1.5" width="138" height="137" rx="6.5" stroke="#fff" stroke-width="3"/><path d="M109.567 111.133h-8.6v-47.3c0-.791-.642-1.433-1.434-1.433H79.467V29.433c0-.791-.642-1.433-1.434-1.433H40.767c-.792 0-1.434.642-1.434 1.433v81.7h-12.9a1.434 1.434 0 000 2.867h83.134a1.434 1.434 0 000-2.867zm-54.467 0h-5.733v-12.9c0-.791.641-1.433 1.433-1.433h2.867c.791 0 1.433.642 1.433 1.433v12.9zm5.733-47.3v47.3h-2.866v-12.9a4.3 4.3 0 00-4.3-4.3H50.8a4.3 4.3 0 00-4.3 4.3v12.9h-4.3V30.867h34.4V62.4H62.267c-.792 0-1.434.642-1.434 1.433zm37.267 47.3H63.7V65.267h34.4v45.866z" fill="#fff"/><path d="M70.867 48.067h-8.6c-.792 0-1.434.641-1.434 1.433v8.6c0 .791.642 1.433 1.434 1.433h8.6c.791 0 1.433-.642 1.433-1.433v-8.6c0-.792-.642-1.433-1.433-1.433zm-1.434 8.6H63.7v-5.734h5.733v5.734zm1.434-22.934h-8.6c-.792 0-1.434.642-1.434 1.434v8.6c0 .791.642 1.433 1.434 1.433h8.6c.791 0 1.433-.642 1.433-1.433v-8.6c0-.792-.642-1.434-1.433-1.434zm-1.434 8.6H63.7V36.6h5.733v5.733zm-12.9 5.734h-8.6c-.791 0-1.433.641-1.433 1.433v8.6c0 .791.642 1.433 1.433 1.433h8.6c.792 0 1.434-.642 1.434-1.433v-8.6c0-.792-.642-1.433-1.434-1.433zm-1.433 8.6h-5.733v-5.734H55.1v5.734zm1.433-22.934h-8.6c-.791 0-1.433.642-1.433 1.434v8.6c0 .791.642 1.433 1.433 1.433h8.6c.792 0 1.434-.642 1.434-1.433v-8.6c0-.792-.642-1.434-1.434-1.434zm-1.433 8.6h-5.733V36.6H55.1v5.733zM56.533 62.4h-8.6c-.791 0-1.433.642-1.433 1.434v8.6c0 .791.642 1.433 1.433 1.433h8.6c.792 0 1.434-.642 1.434-1.434v-8.6c0-.791-.642-1.433-1.434-1.433zM55.1 71h-5.733v-5.733H55.1V71zm1.433 5.733h-8.6c-.791 0-1.433.642-1.433 1.434v8.6c0 .791.642 1.433 1.433 1.433h8.6c.792 0 1.434-.642 1.434-1.433v-8.6c0-.792-.642-1.434-1.434-1.434zm-1.433 8.6h-5.733V79.6H55.1v5.733zm28.667 8.6h8.6c.791 0 1.433-.641 1.433-1.433v-8.6c0-.791-.642-1.433-1.433-1.433h-8.6c-.792 0-1.434.642-1.434 1.433v8.6c0 .792.642 1.433 1.434 1.433zm1.433-8.6h5.733v5.734H85.2v-5.733zM83.767 79.6h8.6c.791 0 1.433-.642 1.433-1.433v-8.6c0-.792-.642-1.434-1.433-1.434h-8.6c-.792 0-1.434.642-1.434 1.434v8.6c0 .791.642 1.433 1.434 1.433zM85.2 71h5.733v5.733H85.2V71zm-1.433 37.267h8.6c.791 0 1.433-.642 1.433-1.434v-8.6c0-.791-.642-1.433-1.433-1.433h-8.6c-.792 0-1.434.642-1.434 1.433v8.6c0 .792.642 1.434 1.434 1.434zm1.433-8.6h5.733v5.733H85.2v-5.733zm-15.767-5.734h8.6c.792 0 1.434-.641 1.434-1.433v-8.6c0-.791-.642-1.433-1.434-1.433h-8.6c-.791 0-1.433.642-1.433 1.433v8.6c0 .792.642 1.433 1.433 1.433zm1.434-8.6H76.6v5.734h-5.733v-5.733zM69.433 79.6h8.6c.792 0 1.434-.642 1.434-1.433v-8.6c0-.792-.642-1.434-1.434-1.434h-8.6c-.791 0-1.433.642-1.433 1.434v8.6c0 .791.642 1.433 1.433 1.433zm1.434-8.6H76.6v5.733h-5.733V71zm-1.434 37.267h8.6c.792 0 1.434-.642 1.434-1.434v-8.6c0-.791-.642-1.433-1.434-1.433h-8.6c-.791 0-1.433.642-1.433 1.433v8.6c0 .792.642 1.434 1.433 1.434zm1.434-8.6H76.6v5.733h-5.733v-5.733z" fill="#fff"/></svg>