<svg viewBox="0 0 141 141" fill="none" xmlns="http://www.w3.org/2000/svg"><rect x="1.5" y="2.184" width="138" height="137" rx="6.5" stroke="#fff" stroke-width="3"/><g clip-path="url(#clip0)" fill="#fff"><path d="M102.733 35H41.139a4.564 4.564 0 00-4.563 4.557v45.565c0 1.68.924 3.133 2.282 3.923v13.164a3.424 3.424 0 003.422 3.418h59.312a3.424 3.424 0 003.422-3.418V89.045c1.357-.79 2.281-2.244 2.281-3.923V39.557A4.564 4.564 0 00102.733 35zm0 67.209a1.14 1.14 0 01-1.141 1.139H42.28a1.14 1.14 0 01-1.141-1.139v-12.53h61.594v12.53zm2.281-17.087a2.282 2.282 0 01-2.281 2.278H41.139a2.282 2.282 0 01-2.281-2.278V39.557a2.282 2.282 0 012.281-2.279h61.594a2.282 2.282 0 012.281 2.279v45.565z"/><path d="M50.264 101.07a4.564 4.564 0 004.563-4.556 4.564 4.564 0 00-4.563-4.557 4.564 4.564 0 00-4.563 4.557 4.564 4.564 0 004.563 4.556zm0-6.835a2.282 2.282 0 012.281 2.279 2.282 2.282 0 01-4.562 0 2.282 2.282 0 012.281-2.279zM43.42 82.844h57.031V41.835h-57.03v41.009zm2.282-38.73H98.17v36.452H45.702V44.113zm25.093 50.121H59.39v6.835h11.406v-6.835zm-2.281 4.557H61.67v-2.278h6.844v2.278zm15.969-4.557H73.076v6.835h11.407v-6.835zM82.2 98.792h-6.843v-2.278H82.2v2.278zm15.97-4.557H86.764v6.835H98.17v-6.835zm-2.281 4.557h-6.844v-2.278h6.844v2.278z"/><path d="M81.95 54.304l-4.223 15.813-5.618-24.684-6.715 21.463h-1.76l-5.469-16.384-5.34 18.662h-4.842v2.278h6.563l3.786-13.233 3.657 10.955h5.082l4.692-14.99 5.788 25.438 4.903-18.36 2.418 5.634h11.017v-2.278h-9.514l-4.426-10.314z"/><path d="M54.827 73.73h2.28v2.279h-2.28v-2.278zm4.562 0h2.281v2.279h-2.28v-2.278zm4.563 0h2.28v2.279h-2.28v-2.278z"/></g><defs><clipPath id="clip0"><path fill="#fff" transform="translate(34 35)" d="M0 0h73v72.905H0z"/></clipPath></defs></svg>