<svg width="24" height="25" fill="none" xmlns="http://www.w3.org/2000/svg"><path fill-rule="evenodd" clip-rule="evenodd" d="M19.263 10.19c0 5.33-4.267 9.65-9.531 9.65S.2 15.52.2 10.19 4.468.537 9.732.537s9.531 4.321 9.531 9.651zm-16.68 0c0 3.997 3.2 7.237 7.149 7.237 3.948 0 7.148-3.24 7.148-7.238 0-3.997-3.2-7.238-7.148-7.238-3.948 0-7.15 3.24-7.15 7.238z" fill="#414042"/><path fill-rule="evenodd" clip-rule="evenodd" d="M21.379 24.29a1.181 1.181 0 001.684.044 1.217 1.217 0 00.043-1.706l-6.553-6.985a1.181 1.181 0 00-1.684-.043 1.217 1.217 0 00-.043 1.705l6.553 6.985z" fill="#414042"/></svg>