<svg width="40" height="40" fill="none" xmlns="http://www.w3.org/2000/svg"><circle cx="20" cy="20" r="20" fill="#E89A04"/><path d="M26.724 12H13.229a2 2 0 00-1.979 1.98v.07a2 2 0 00.742 1.543l.018.015 5.991 4.793c.713.57 1.07.856 1.466.965.349.097.717.097 1.066 0 .396-.11.753-.395 1.466-.965l5.99-4.793.02-.015a2 2 0 00.741-1.543v-.07A2 2 0 0026.77 12h-.046z" fill="#fff"/><path d="M14.45 28h11.1c1.12 0 1.68 0 2.108-.218a2 2 0 00.874-.874c.218-.428.218-.988.218-2.108v-8.3l-5.752 4.601c-1.07.856-1.605 1.284-2.198 1.448a3 3 0 01-1.6 0c-.593-.164-1.128-.592-2.198-1.448L11.25 16.5v8.3c0 1.12 0 1.68.218 2.108a2 2 0 00.874.874c.428.218.988.218 2.108.218z" fill="#fff"/></svg>