<svg width="40" height="40" fill="none" xmlns="http://www.w3.org/2000/svg"><path fill-rule="evenodd" clip-rule="evenodd" d="M20 40c11.046 0 20-8.954 20-20S31.046 0 20 0 0 8.954 0 20s8.954 20 20 20zm6.463-17.277l3.089 3.096c.613.617.595 1.638-.041 2.277l-.882.866-.02-.017a5.014 5.014 0 01-1.26.716 5.208 5.208 0 01-1.287.324c-.202.021-4.872.46-10.669-5.349-4.193-4.203-5.738-7.3-5.33-10.688.048-.423.152-.845.32-1.287a5.05 5.05 0 01.717-1.268l-.024-.024.87-.877c.638-.64 1.657-.658 2.27-.043l3.09 3.097c.613.616.596 1.636-.042 2.276l-.513.515-1.045 1.045c.047.082.094.168.143.256l.025.045.003.005c.546.985 1.292 2.333 2.71 3.753 1.415 1.42 2.76 2.167 3.742 2.713l.307.171 1.556-1.56c.637-.637 1.656-.656 2.27-.042z" fill="#E89A04"/></svg>